umbra-9.ufo
<glyph name="exclam" format="1">
  <advance width="291"/>
  <unicode hex="0021"/>
  <outline>
    <contour>
      <point x="-205" y="169" type="line"/>
      <point x="-235" y="449" type="line"/>
      <point x="-75" y="449" type="line"/>
      <point x="-105" y="169" type="line"/>
    </contour>
    <contour>
      <point x="-155" y="-79" type="line"/>
      <point x="-260" y="26" type="line"/>
      <point x="-155" y="132" type="line"/>
      <point x="-49" y="26" type="line"/>
    </contour>
  </outline>
</glyph>
<glyph name="dollar" format="1">
  <advance width="449"/>
  <unicode hex="0024"/>
  <outline>
    <contour>
      <point x="-21" y="99" type="curve" smooth="yes"/>
      <point x="-21" y="159"/>
      <point x="-254" y="162"/>
      <point x="-254" y="312" type="curve" smooth="yes"/>
      <point x="-254" y="391"/>
      <point x="-198" y="442"/>
      <point x="-120" y="458" type="curve"/>
      <point x="-135" y="519" type="line"/>
      <point x="5" y="519" type="line"/>
      <point x="-10" y="458" type="line"/>
      <point x="36" y="446"/>
      <point x="78" y="419"/>
      <point x="115" y="377" type="curve"/>
      <point x="75" y="267" type="line"/>
      <point x="35" y="305"/>
      <point x="-13" y="344"/>
      <point x="-61" y="344" type="curve" smooth="yes"/>
      <point x="-89" y="344"/>
      <point x="-99" y="330"/>
      <point x="-99" y="312" type="curve" smooth="yes"/>
      <point x="-99" y="252"/>
      <point x="124" y="245"/>
      <point x="124" y="101" type="curve" smooth="yes"/>
      <point x="124" y="-4"/>
      <point x="59" y="-49"/>
      <point x="-24" y="-62" type="curve"/>
      <point x="-8" y="-126" type="line"/>
      <point x="-148" y="-126" type="line"/>
      <point x="-132" y="-62" type="line"/>
      <point x="-201" y="-52"/>
      <point x="-253" y="-22"/>
      <point x="-285" y="16" type="curve"/>
      <point x="-245" y="131" type="line"/>
      <point x="-205" y="93"/>
      <point x="-136" y="59"/>
      <point x="-88" y="59" type="curve" smooth="yes"/>
      <point x="-50" y="59"/>
      <point x="-21" y="68"/>
    </contour>
  </outline>
</glyph>
<glyph name="parenleft" format="1">
  <advance width="232"/>
  <unicode hex="0028"/>
  <outline>
    <contour>
      <point x="-158" y="-91" type="line"/>
      <point x="-233" y="-6"/>
      <point x="-270" y="99"/>
      <point x="-270" y="204" type="curve" smooth="yes"/>
      <point x="-270" y="309"/>
      <point x="-233" y="414"/>
      <point x="-158" y="499" type="curve"/>
      <point x="-68" y="499" type="line"/>
      <point x="-118" y="424"/>
      <point x="-142" y="314"/>
      <point x="-142" y="204" type="curve" smooth="yes"/>
      <point x="-142" y="94"/>
      <point x="-118" y="-16"/>
      <point x="-68" y="-91" type="curve"/>
    </contour>
  </outline>
</glyph>
<glyph name="plus" format="1">
  <advance width="560"/>
  <unicode hex="002B"/>
  <outline>
    <contour>
      <point x="-215" y="139" type="line"/>
      <point x="-215" y="249" type="line"/>
      <point x="-90" y="249" type="line"/>
      <point x="-90" y="369" type="line"/>
      <point x="50" y="369" type="line"/>
      <point x="50" y="249" type="line"/>
      <point x="175" y="249" type="line"/>
      <point x="175" y="139" type="line"/>
      <point x="50" y="139" type="line"/>
      <point x="50" y="19" type="line"/>
      <point x="-90" y="19" type="line"/>
      <point x="-90" y="139" type="line"/>
    </contour>
  </outline>
</glyph>
<glyph name="one" format="1">
  <advance width="230"/>
  <unicode hex="0031"/>
  <outline>
    <contour>
      <point x="-255" y="-51" type="line"/>
      <point x="-255" y="399" type="line"/>
      <point x="-115" y="479" type="line"/>
      <point x="-115" y="-51" type="line"/>
    </contour>
  </outline>
</glyph>
<glyph name="seven" format="1">
  <advance width="455"/>
  <unicode hex="0037"/>
  <outline>
    <contour>
      <point x="135" y="449" type="line"/>
      <point x="134" y="309"/>
      <point x="-43" y="256"/>
      <point x="-43" y="-54" type="curve"/>
      <point x="-178" y="-52" type="line"/>
      <point x="-178" y="167"/>
      <point x="-91" y="247"/>
      <point x="-32" y="329" type="curve"/>
      <point x="-275" y="329" type="line"/>
      <point x="-275" y="449" type="line"/>
    </contour>
  </outline>
</glyph>
<glyph name="eight" format="1">
  <advance width="464"/>
  <unicode hex="0038"/>
  <outline>
    <contour>
      <point x="-140" y="101" type="curve" smooth="yes"/>
      <point x="-140" y="73"/>
      <point x="-116" y="54"/>
      <point x="-68" y="54" type="curve" smooth="yes"/>
      <point x="-20" y="54"/>
      <point x="4" y="73"/>
      <point x="4" y="101" type="curve" smooth="yes"/>
      <point x="4" y="129"/>
      <point x="-20" y="149"/>
      <point x="-68" y="149" type="curve" smooth="yes"/>
      <point x="-116" y="149"/>
      <point x="-140" y="129"/>
    </contour>
    <contour>
      <point x="-120" y="303" type="curve" smooth="yes"/>
      <point x="-120" y="275"/>
      <point x="-96" y="264"/>
      <point x="-68" y="264" type="curve" smooth="yes"/>
      <point x="-40" y="264"/>
      <point x="-16" y="275"/>
      <point x="-16" y="303" type="curve" smooth="yes"/>
      <point x="-16" y="331"/>
      <point x="-40" y="344"/>
      <point x="-68" y="344" type="curve" smooth="yes"/>
      <point x="-96" y="344"/>
      <point x="-120" y="331"/>
    </contour>
    <contour>
      <point x="-250" y="313" type="curve" smooth="yes"/>
      <point x="-250" y="390"/>
      <point x="-185" y="459"/>
      <point x="-68" y="459" type="curve" smooth="yes"/>
      <point x="49" y="459"/>
      <point x="114" y="390"/>
      <point x="114" y="313" type="curve" smooth="yes"/>
      <point x="114" y="266"/>
      <point x="89" y="230"/>
      <point x="43" y="209" type="curve"/>
      <point x="99" y="190"/>
      <point x="134" y="153"/>
      <point x="134" y="91" type="curve" smooth="yes"/>
      <point x="134" y="-16"/>
      <point x="49" y="-61"/>
      <point x="-68" y="-61" type="curve" smooth="yes"/>
      <point x="-185" y="-61"/>
      <point x="-270" y="-6"/>
      <point x="-270" y="91" type="curve" smooth="yes"/>
      <point x="-270" y="154"/>
      <point x="-234" y="192"/>
      <point x="-176" y="210" type="curve"/>
      <point x="-224" y="233"/>
      <point x="-250" y="271"/>
    </contour>
  </outline>
</glyph>
<glyph name="colon" format="1">
  <advance width="291"/>
  <unicode hex="003A"/>
  <outline>
    <contour>
      <point x="-155" y="206" type="line"/>
      <point x="-260" y="311" type="line"/>
      <point x="-155" y="417" type="line"/>
      <point x="-49" y="311" type="line"/>
    </contour>
    <contour>
      <point x="-155" y="-79" type="line"/>
      <point x="-260" y="26" type="line"/>
      <point x="-155" y="132" type="line"/>
      <point x="-49" y="26" type="line"/>
    </contour>
  </outline>
</glyph>
<glyph name="equal" format="1">
  <advance width="560"/>
  <unicode hex="003D"/>
  <outline>
    <contour>
      <point x="-215" y="59" type="line"/>
      <point x="-215" y="169" type="line"/>
      <point x="175" y="169" type="line"/>
      <point x="175" y="59" type="line"/>
    </contour>
    <contour>
      <point x="-215" y="239" type="line"/>
      <point x="-215" y="349" type="line"/>
      <point x="175" y="349" type="line"/>
      <point x="175" y="239" type="line"/>
    </contour>
  </outline>
</glyph>
<glyph name="D" format="1">
  <advance width="555"/>
  <unicode hex="0044"/>
  <outline>
    <contour>
      <point x="-255" y="-51" type="curve"/>
      <point x="-255" y="449" type="line"/>
      <point x="-182" y="449"/>
      <point x="-108" y="449"/>
      <point x="-35" y="449" type="curve" smooth="yes"/>
      <point x="140" y="449"/>
      <point x="225" y="348"/>
      <point x="225" y="199" type="curve" smooth="yes"/>
      <point x="225" y="50"/>
      <point x="140" y="-51"/>
      <point x="-35" y="-51" type="curve" smooth="yes"/>
      <point x="-108" y="-51"/>
      <point x="-182" y="-51"/>
    </contour>
    <contour>
      <point x="-35" y="69" type="line" smooth="yes"/>
      <point x="27" y="69"/>
      <point x="80" y="106"/>
      <point x="80" y="199" type="curve" smooth="yes"/>
      <point x="80" y="292"/>
      <point x="27" y="329"/>
      <point x="-35" y="329" type="curve" smooth="yes"/>
      <point x="-115" y="329" type="line"/>
      <point x="-115" y="69" type="line"/>
    </contour>
  </outline>
</glyph>
<glyph name="H" format="1">
  <advance width="560"/>
  <unicode hex="0048"/>
  <outline>
    <contour>
      <point x="-255" y="-51" type="line"/>
      <point x="-255" y="449" type="line"/>
      <point x="-115" y="449" type="line"/>
      <point x="-115" y="259" type="line"/>
      <point x="75" y="259" type="line"/>
      <point x="75" y="449" type="line"/>
      <point x="215" y="449" type="line"/>
      <point x="215" y="-51" type="line"/>
      <point x="75" y="-51" type="line"/>
      <point x="75" y="139" type="line"/>
      <point x="-115" y="139" type="line"/>
      <point x="-115" y="-51" type="line"/>
    </contour>
  </outline>
</glyph>
<glyph name="J" format="1">
  <advance width="319"/>
  <unicode hex="004A"/>
  <outline>
    <contour>
      <point x="-166" y="-41" type="curve" smooth="yes"/>
      <point x="-166" y="449" type="line"/>
      <point x="-26" y="449" type="line"/>
      <point x="-26" y="-81" type="line" smooth="yes"/>
      <point x="-26" y="-178"/>
      <point x="-116" y="-233"/>
      <point x="-193" y="-233" type="curve" smooth="yes"/>
      <point x="-260" y="-233"/>
      <point x="-300" y="-213"/>
      <point x="-350" y="-166" type="curve"/>
      <point x="-300" y="-61" type="line"/>
      <point x="-260" y="-99"/>
      <point x="-231" y="-113"/>
      <point x="-213" y="-113" type="curve" smooth="yes"/>
      <point x="-185" y="-113"/>
      <point x="-166" y="-99"/>
    </contour>
  </outline>
</glyph>
<glyph name="R" format="1">
  <advance width="515"/>
  <unicode hex="0052"/>
  <outline>
    <contour>
      <point x="-255" y="-51" type="line"/>
      <point x="-255" y="449" type="line"/>
      <point x="-182" y="449"/>
      <point x="-108" y="449"/>
      <point x="-35" y="449" type="curve" smooth="yes"/>
      <point x="82" y="449"/>
      <point x="167" y="404"/>
      <point x="167" y="277" type="curve" smooth="yes"/>
      <point x="167" y="198"/>
      <point x="120" y="157"/>
      <point x="48" y="142" type="curve"/>
      <point x="195" y="-51" type="line"/>
      <point x="35" y="-51" type="line"/>
      <point x="-115" y="139" type="line"/>
      <point x="-115" y="-51" type="line"/>
    </contour>
    <contour>
      <point x="-48" y="334" type="curve" smooth="yes"/>
      <point x="-115" y="334" type="line"/>
      <point x="-115" y="219" type="line"/>
      <point x="-48" y="219" type="line" smooth="yes"/>
      <point x="-10" y="219"/>
      <point x="22" y="229"/>
      <point x="22" y="277" type="curve" smooth="yes"/>
      <point x="22" y="325"/>
      <point x="-10" y="334"/>
    </contour>
  </outline>
</glyph>
<glyph name="S" format="1">
  <advance width="449"/>
  <unicode hex="0053"/>
  <outline>
    <contour>
      <point x="-21" y="99" type="curve" smooth="yes"/>
      <point x="-21" y="159"/>
      <point x="-254" y="162"/>
      <point x="-254" y="312" type="curve" smooth="yes"/>
      <point x="-254" y="409"/>
      <point x="-169" y="464"/>
      <point x="-62" y="464" type="curve" smooth="yes"/>
      <point x="5" y="464"/>
      <point x="65" y="434"/>
      <point x="115" y="377" type="curve"/>
      <point x="75" y="267" type="line"/>
      <point x="35" y="305"/>
      <point x="-13" y="344"/>
      <point x="-61" y="344" type="curve" smooth="yes"/>
      <point x="-89" y="344"/>
      <point x="-99" y="330"/>
      <point x="-99" y="312" type="curve" smooth="yes"/>
      <point x="-99" y="252"/>
      <point x="124" y="245"/>
      <point x="124" y="101" type="curve" smooth="yes"/>
      <point x="124" y="-26"/>
      <point x="29" y="-66"/>
      <point x="-78" y="-66" type="curve" smooth="yes"/>
      <point x="-175" y="-66"/>
      <point x="-245" y="-31"/>
      <point x="-285" y="16" type="curve"/>
      <point x="-245" y="131" type="line"/>
      <point x="-205" y="93"/>
      <point x="-136" y="59"/>
      <point x="-88" y="59" type="curve" smooth="yes"/>
      <point x="-50" y="59"/>
      <point x="-21" y="68"/>
    </contour>
  </outline>
</glyph>
<glyph name="T" format="1">
  <advance width="480"/>
  <unicode hex="0054"/>
  <outline>
    <contour>
      <point x="-280" y="329" type="line"/>
      <point x="-280" y="449" type="line"/>
      <point x="160" y="449" type="line"/>
      <point x="160" y="329" type="line"/>
      <point x="10" y="329" type="line"/>
      <point x="10" y="-51" type="line"/>
      <point x="-130" y="-51" type="line"/>
      <point x="-130" y="329" type="line"/>
    </contour>
  </outline>
</glyph>
<glyph name="X" format="1">
  <advance width="620"/>
  <unicode hex="0058"/>
  <outline>
    <contour>
      <point x="300" y="-51" type="line"/>
      <point x="130" y="-51" type="line"/>
      <point x="10" y="103" type="line"/>
      <point x="-110" y="-51" type="line"/>
      <point x="-280" y="-51" type="line"/>
      <point x="-75" y="212" type="line"/>
      <point x="-260" y="449" type="line"/>
      <point x="-90" y="449" type="line"/>
      <point x="10" y="321" type="line"/>
      <point x="110" y="449" type="line"/>
      <point x="280" y="449" type="line"/>
      <point x="95" y="212" type="line"/>
    </contour>
  </outline>
</glyph>
<glyph name="Y" format="1">
  <advance width="540"/>
  <unicode hex="0059"/>
  <outline>
    <contour>
      <point x="40" y="129" type="line"/>
      <point x="40" y="-51" type="line"/>
      <point x="-100" y="-51" type="line"/>
      <point x="-100" y="129" type="line"/>
      <point x="-290" y="449" type="line"/>
      <point x="-130" y="449" type="line"/>
      <point x="-30" y="249" type="line"/>
      <point x="70" y="449" type="line"/>
      <point x="230" y="449" type="line"/>
    </contour>
  </outline>
</glyph>
<glyph name="e" format="1">
  <advance width="469"/>
  <unicode hex="0065"/>
  <outline>
    <contour>
      <point x="-260" y="141" type="curve" smooth="yes"/>
      <point x="-260" y="268"/>
      <point x="-175" y="344"/>
      <point x="-58" y="344" type="curve" smooth="yes"/>
      <point x="59" y="344"/>
      <point x="134" y="268"/>
      <point x="134" y="161" type="curve"/>
      <point x="-108" y="72" type="line"/>
      <point x="-92" y="52"/>
      <point x="-69" y="39"/>
      <point x="-38" y="39" type="curve" smooth="yes"/>
      <point x="5" y="39"/>
      <point x="32" y="63"/>
      <point x="54" y="97" type="curve"/>
      <point x="114" y="4" type="line"/>
      <point x="78" y="-40"/>
      <point x="20" y="-61"/>
      <point x="-48" y="-61" type="curve" smooth="yes"/>
      <point x="-165" y="-61"/>
      <point x="-260" y="14"/>
    </contour>
    <contour>
      <point x="18" y="215" type="line"/>
      <point x="3" y="235"/>
      <point x="-21" y="248"/>
      <point x="-55" y="248" type="curve" smooth="yes"/>
      <point x="-110" y="248"/>
      <point x="-132" y="202"/>
      <point x="-135" y="157" type="curve"/>
    </contour>
  </outline>
</glyph>
<glyph name="p" format="1">
  <advance width="499"/>
  <unicode hex="0070"/>
  <outline>
    <contour>
      <point x="-260" y="334" type="line"/>
      <point x="-125" y="334" type="line"/>
      <point x="-125" y="292" type="line"/>
      <point x="-94" y="324"/>
      <point x="-53" y="344"/>
      <point x="-8" y="344" type="curve" smooth="yes"/>
      <point x="99" y="344"/>
      <point x="164" y="259"/>
      <point x="164" y="142" type="curve" smooth="yes"/>
      <point x="164" y="25"/>
      <point x="99" y="-61"/>
      <point x="-8" y="-61" type="curve" smooth="yes"/>
      <point x="-53" y="-61"/>
      <point x="-94" y="-43"/>
      <point x="-125" y="-12" type="curve"/>
      <point x="-125" y="-196" type="line"/>
      <point x="-260" y="-196" type="line"/>
    </contour>
    <contour>
      <point x="-125" y="83" type="line"/>
      <point x="-106" y="59"/>
      <point x="-77" y="44"/>
      <point x="-48" y="44" type="curve" smooth="yes"/>
      <point x="0" y="44"/>
      <point x="29" y="84"/>
      <point x="29" y="142" type="curve" smooth="yes"/>
      <point x="29" y="200"/>
      <point x="0" y="239"/>
      <point x="-48" y="239" type="curve" smooth="yes"/>
      <point x="-77" y="239"/>
      <point x="-106" y="225"/>
      <point x="-125" y="201" type="curve"/>
    </contour>
  </outline>
</glyph>
<glyph name="s" format="1">
  <advance width="374"/>
  <unicode hex="0073"/>
  <outline>
    <contour>
      <point x="-86" y="61" type="curve" smooth="yes"/>
      <point x="-86" y="111"/>
      <point x="-254" y="107"/>
      <point x="-254" y="227" type="curve" smooth="yes"/>
      <point x="-254" y="324"/>
      <point x="-179" y="349"/>
      <point x="-102" y="349" type="curve" smooth="yes"/>
      <point x="-65" y="349"/>
      <point x="-15" y="334"/>
      <point x="35" y="287" type="curve"/>
      <point x="-5" y="197" type="line"/>
      <point x="-45" y="235"/>
      <point x="-73" y="249"/>
      <point x="-91" y="249" type="curve" smooth="yes"/>
      <point x="-109" y="249"/>
      <point x="-119" y="240"/>
      <point x="-119" y="227" type="curve" smooth="yes"/>
      <point x="-119" y="177"/>
      <point x="49" y="175"/>
      <point x="49" y="71" type="curve" smooth="yes"/>
      <point x="49" y="-26"/>
      <point x="-36" y="-66"/>
      <point x="-113" y="-66" type="curve" smooth="yes"/>
      <point x="-180" y="-66"/>
      <point x="-230" y="-51"/>
      <point x="-280" y="-4" type="curve"/>
      <point x="-240" y="86" type="line"/>
      <point x="-200" y="48"/>
      <point x="-151" y="34"/>
      <point x="-133" y="34" type="curve" smooth="yes"/>
      <point x="-105" y="34"/>
      <point x="-86" y="40"/>
    </contour>
  </outline>
</glyph>
<glyph name="t" format="1">
  <advance width="325"/>
  <unicode hex="0074"/>
  <outline>
    <contour>
      <point x="-280" y="234" type="line"/>
      <point x="-280" y="334" type="line"/>
      <point x="-210" y="334" type="line"/>
      <point x="-210" y="399" type="line"/>
      <point x="-75" y="459" type="line"/>
      <point x="-75" y="334" type="line"/>
      <point x="5" y="334" type="line"/>
      <point x="5" y="234" type="line"/>
      <point x="-75" y="234" type="line"/>
      <point x="-75" y="-51" type="line"/>
      <point x="-210" y="-51" type="line"/>
      <point x="-210" y="234" type="line"/>
    </contour>
  </outline>
</glyph>
<glyph name="w" format="1">
  <advance width="695"/>
  <unicode hex="0077"/>
  <outline>
    <contour>
      <point x="-165" y="-51" type="line"/>
      <point x="-285" y="334" type="line"/>
      <point x="-140" y="334" type="line"/>
      <point x="-87" y="77" type="line"/>
      <point x="-10" y="334" type="line"/>
      <point x="105" y="334" type="line"/>
      <point x="188" y="77" type="line"/>
      <point x="235" y="334" type="line"/>
      <point x="380" y="334" type="line"/>
      <point x="270" y="-51" type="line"/>
      <point x="125" y="-51" type="line"/>
      <point x="49" y="156" type="line"/>
      <point x="-20" y="-51" type="line"/>
    </contour>
  </outline>
</glyph>
<glyph name="y" format="1">
  <advance width="470"/>
  <unicode hex="0079"/>
  <outline>
    <contour>
      <point x="-120" y="-20" type="line"/>
      <point x="-290" y="334" type="line"/>
      <point x="-135" y="334" type="line"/>
      <point x="-61" y="131" type="line"/>
      <point x="20" y="334" type="line"/>
      <point x="160" y="334" type="line"/>
      <point x="-60" y="-196" type="line"/>
      <point x="-190" y="-196" type="line"/>
    </contour>
  </outline>
</glyph>
<glyph name="z" format="1">
  <advance width="425"/>
  <unicode hex="007A"/>
  <outline>
    <contour>
      <point x="-245" y="204" type="line"/>
      <point x="-245" y="334" type="line"/>
      <point x="-125" y="334"/>
      <point x="-5" y="334"/>
      <point x="115" y="334" type="curve"/>
      <point x="-64" y="79" type="line"/>
      <point x="90" y="79" type="line"/>
      <point x="90" y="-51" type="line"/>
      <point x="-37" y="-51"/>
      <point x="-163" y="-51"/>
      <point x="-290" y="-51" type="curve"/>
      <point x="-111" y="204" type="line"/>
    </contour>
  </outline>
</glyph>
